<mxfile host="app.diagrams.net" modified="2023-06-19T18:46:21.862Z" agent="Mozilla/5.0 (Windows NT 10.0; Win64; x64) AppleWebKit/537.36 (KHTML, like Gecko) Chrome/114.0.0.0 Safari/537.36 Edg/114.0.1823.43" etag="1NaXNQfMvkA_KbvqBWx0" version="21.5.0" type="github" pages="2">
  <diagram name="Mul32x32" id="QRuHNjkxRnGpMCgw-yJH">
    <mxGraphModel dx="1958" dy="1715" grid="1" gridSize="10" guides="1" tooltips="1" connect="1" arrows="1" fold="1" page="1" pageScale="1" pageWidth="827" pageHeight="1169" math="0" shadow="0">
      <root>
        <mxCell id="0" />
        <mxCell id="1" parent="0" />
        <mxCell id="8Rcfs02TrADU7LgiyIq5-1" value="&lt;font style=&quot;font-size: 36px;&quot;&gt;Idle&lt;/font&gt;" style="ellipse;whiteSpace=wrap;html=1;aspect=fixed;" parent="1" vertex="1">
          <mxGeometry x="90" y="90" width="140" height="140" as="geometry" />
        </mxCell>
        <mxCell id="8Rcfs02TrADU7LgiyIq5-2" value="" style="endArrow=classic;html=1;rounded=0;exitX=1;exitY=0.5;exitDx=0;exitDy=0;fillColor=#d5e8d4;strokeColor=#000000;fontColor=#000000;" parent="1" source="8Rcfs02TrADU7LgiyIq5-1" edge="1">
          <mxGeometry width="50" height="50" relative="1" as="geometry">
            <mxPoint x="290" y="160" as="sourcePoint" />
            <mxPoint x="420" y="160" as="targetPoint" />
          </mxGeometry>
        </mxCell>
        <mxCell id="8Rcfs02TrADU7LgiyIq5-3" value="&lt;font style=&quot;font-size: 36px;&quot;&gt;S0&lt;/font&gt;" style="ellipse;whiteSpace=wrap;html=1;aspect=fixed;" parent="1" vertex="1">
          <mxGeometry x="445" y="90" width="140" height="140" as="geometry" />
        </mxCell>
        <mxCell id="8Rcfs02TrADU7LgiyIq5-4" value="&lt;font&gt;start==1&lt;/font&gt;" style="text;html=1;align=center;verticalAlign=middle;resizable=0;points=[];autosize=1;strokeColor=none;fillColor=none;fontColor=#000000;" parent="1" vertex="1">
          <mxGeometry x="295" y="130" width="70" height="30" as="geometry" />
        </mxCell>
        <mxCell id="8Rcfs02TrADU7LgiyIq5-7" value="&lt;font style=&quot;font-size: 36px;&quot;&gt;S1&lt;/font&gt;" style="ellipse;whiteSpace=wrap;html=1;aspect=fixed;" parent="1" vertex="1">
          <mxGeometry x="445" y="370" width="140" height="140" as="geometry" />
        </mxCell>
        <mxCell id="8Rcfs02TrADU7LgiyIq5-13" value="" style="endArrow=classic;html=1;rounded=0;exitX=0.5;exitY=1;exitDx=0;exitDy=0;" parent="1" source="8Rcfs02TrADU7LgiyIq5-3" edge="1">
          <mxGeometry width="50" height="50" relative="1" as="geometry">
            <mxPoint x="175" y="170" as="sourcePoint" />
            <mxPoint x="515" y="360" as="targetPoint" />
          </mxGeometry>
        </mxCell>
        <mxCell id="8Rcfs02TrADU7LgiyIq5-16" value="&lt;font style=&quot;font-size: 36px;&quot;&gt;S2&lt;/font&gt;" style="ellipse;whiteSpace=wrap;html=1;aspect=fixed;" parent="1" vertex="1">
          <mxGeometry x="90" y="370" width="140" height="140" as="geometry" />
        </mxCell>
        <mxCell id="8Rcfs02TrADU7LgiyIq5-17" value="" style="endArrow=classic;html=1;rounded=0;exitX=0;exitY=0.5;exitDx=0;exitDy=0;" parent="1" source="8Rcfs02TrADU7LgiyIq5-7" edge="1">
          <mxGeometry width="50" height="50" relative="1" as="geometry">
            <mxPoint x="270" y="440" as="sourcePoint" />
            <mxPoint x="250" y="440" as="targetPoint" />
          </mxGeometry>
        </mxCell>
        <mxCell id="8Rcfs02TrADU7LgiyIq5-21" value="&lt;font style=&quot;font-size: 36px;&quot;&gt;S4&lt;/font&gt;" style="ellipse;whiteSpace=wrap;html=1;aspect=fixed;" parent="1" vertex="1">
          <mxGeometry x="-270" y="90" width="140" height="140" as="geometry" />
        </mxCell>
        <mxCell id="8Rcfs02TrADU7LgiyIq5-22" value="&lt;font style=&quot;font-size: 36px;&quot;&gt;S3&lt;/font&gt;" style="ellipse;whiteSpace=wrap;html=1;aspect=fixed;" parent="1" vertex="1">
          <mxGeometry x="-270" y="370" width="140" height="140" as="geometry" />
        </mxCell>
        <mxCell id="8Rcfs02TrADU7LgiyIq5-23" value="" style="endArrow=classic;html=1;rounded=0;exitX=0;exitY=0.5;exitDx=0;exitDy=0;" parent="1" source="8Rcfs02TrADU7LgiyIq5-16" edge="1">
          <mxGeometry width="50" height="50" relative="1" as="geometry">
            <mxPoint x="-20" y="440" as="sourcePoint" />
            <mxPoint x="-110" y="440" as="targetPoint" />
          </mxGeometry>
        </mxCell>
        <mxCell id="8Rcfs02TrADU7LgiyIq5-26" value="" style="endArrow=classic;html=1;rounded=0;exitX=0.5;exitY=0;exitDx=0;exitDy=0;" parent="1" source="8Rcfs02TrADU7LgiyIq5-22" edge="1">
          <mxGeometry width="50" height="50" relative="1" as="geometry">
            <mxPoint x="-200" y="235" as="sourcePoint" />
            <mxPoint x="-200" y="250" as="targetPoint" />
          </mxGeometry>
        </mxCell>
        <mxCell id="8Rcfs02TrADU7LgiyIq5-29" value="&lt;font style=&quot;font-size: 36px;&quot;&gt;S6&lt;/font&gt;" style="ellipse;whiteSpace=wrap;html=1;aspect=fixed;" parent="1" vertex="1">
          <mxGeometry x="90" y="-190" width="140" height="140" as="geometry" />
        </mxCell>
        <mxCell id="8Rcfs02TrADU7LgiyIq5-30" value="&lt;font style=&quot;font-size: 36px;&quot;&gt;S7&lt;/font&gt;" style="ellipse;whiteSpace=wrap;html=1;aspect=fixed;" parent="1" vertex="1">
          <mxGeometry x="445" y="-190" width="140" height="140" as="geometry" />
        </mxCell>
        <mxCell id="8Rcfs02TrADU7LgiyIq5-31" value="&lt;font style=&quot;font-size: 36px;&quot;&gt;S5&lt;/font&gt;" style="ellipse;whiteSpace=wrap;html=1;aspect=fixed;" parent="1" vertex="1">
          <mxGeometry x="-270" y="-190" width="140" height="140" as="geometry" />
        </mxCell>
        <mxCell id="8Rcfs02TrADU7LgiyIq5-32" value="" style="endArrow=classic;html=1;rounded=0;exitX=0.5;exitY=0;exitDx=0;exitDy=0;entryX=-0.003;entryY=-0.002;entryDx=0;entryDy=0;entryPerimeter=0;" parent="1" source="8Rcfs02TrADU7LgiyIq5-21" edge="1">
          <mxGeometry width="50" height="50" relative="1" as="geometry">
            <mxPoint x="-200" y="80" as="sourcePoint" />
            <mxPoint x="-200.26999999999998" y="-30.180000000000064" as="targetPoint" />
          </mxGeometry>
        </mxCell>
        <mxCell id="8Rcfs02TrADU7LgiyIq5-36" value="" style="endArrow=classic;html=1;rounded=0;exitX=1;exitY=0.5;exitDx=0;exitDy=0;" parent="1" source="8Rcfs02TrADU7LgiyIq5-31" edge="1">
          <mxGeometry width="50" height="50" relative="1" as="geometry">
            <mxPoint x="80" y="-120" as="sourcePoint" />
            <mxPoint x="80" y="-120" as="targetPoint" />
          </mxGeometry>
        </mxCell>
        <mxCell id="8Rcfs02TrADU7LgiyIq5-39" value="" style="endArrow=classic;html=1;rounded=0;exitX=1;exitY=0.5;exitDx=0;exitDy=0;" parent="1" source="8Rcfs02TrADU7LgiyIq5-29" edge="1">
          <mxGeometry width="50" height="50" relative="1" as="geometry">
            <mxPoint x="270" y="-100" as="sourcePoint" />
            <mxPoint x="440" y="-120" as="targetPoint" />
          </mxGeometry>
        </mxCell>
        <mxCell id="M2b_wzENFVql52UbRtSp-1" value="&lt;span style=&quot;font-size: 18px;&quot;&gt;&lt;u&gt;Defaults:&lt;/u&gt;&lt;br&gt;a_sel = 00&lt;br&gt;b_sel = 0&lt;br&gt;shift_sel = 000&lt;br&gt;upd_prod = 1&lt;br&gt;clr_prod = 0&lt;br&gt;busy =1&lt;br&gt;&lt;/span&gt;" style="text;html=1;align=center;verticalAlign=middle;resizable=0;points=[];autosize=1;strokeColor=none;fillColor=none;" parent="1" vertex="1">
          <mxGeometry x="90" y="-380" width="140" height="160" as="geometry" />
        </mxCell>
        <mxCell id="M2b_wzENFVql52UbRtSp-2" value="b_sel = 1&lt;br&gt;shift_sel = 010" style="text;html=1;align=center;verticalAlign=middle;resizable=0;points=[];autosize=1;strokeColor=none;fillColor=none;" parent="1" vertex="1">
          <mxGeometry x="304" y="440" width="100" height="40" as="geometry" />
        </mxCell>
        <mxCell id="M2b_wzENFVql52UbRtSp-27" value="" style="edgeStyle=none;orthogonalLoop=1;jettySize=auto;html=1;entryX=-0.008;entryY=0.67;entryDx=0;entryDy=0;entryPerimeter=0;exitX=0.741;exitY=0.987;exitDx=0;exitDy=0;exitPerimeter=0;curved=1;fillColor=#fad7ac;strokeColor=#000000;" parent="1" source="8Rcfs02TrADU7LgiyIq5-1" target="8Rcfs02TrADU7LgiyIq5-1" edge="1">
          <mxGeometry width="100" relative="1" as="geometry">
            <mxPoint x="40" y="310" as="sourcePoint" />
            <mxPoint x="140" y="310" as="targetPoint" />
            <Array as="points">
              <mxPoint x="190" y="300" />
              <mxPoint x="60" y="340" />
              <mxPoint x="30" y="220" />
            </Array>
          </mxGeometry>
        </mxCell>
        <mxCell id="qxv2eQaVbyLp5j0oVwMi-1" value="clr_prod = 1&lt;br&gt;busy = 0" style="text;html=1;align=center;verticalAlign=middle;resizable=0;points=[];autosize=1;strokeColor=none;fillColor=none;" parent="1" vertex="1">
          <mxGeometry x="285" y="160" width="90" height="40" as="geometry" />
        </mxCell>
        <mxCell id="qxv2eQaVbyLp5j0oVwMi-4" value="a_sel = 01&lt;br&gt;shift_sel = 001" style="text;html=1;align=center;verticalAlign=middle;resizable=0;points=[];autosize=1;strokeColor=none;fillColor=none;" parent="1" vertex="1">
          <mxGeometry x="-55" y="440" width="100" height="40" as="geometry" />
        </mxCell>
        <mxCell id="MegI49L9dfREDaaGozWX-1" value="a_sel = 01&lt;br&gt;b_sel = 1&lt;br&gt;shift_sel = 011" style="text;html=1;align=center;verticalAlign=middle;resizable=0;points=[];autosize=1;strokeColor=none;fillColor=none;" parent="1" vertex="1">
          <mxGeometry x="-200" y="280" width="100" height="60" as="geometry" />
        </mxCell>
        <mxCell id="pvizKO0pyKkFbegpxgIJ-1" value="a_sel = 10&lt;br&gt;b_sel = 0&lt;br&gt;shift_sel = 010" style="text;html=1;align=center;verticalAlign=middle;resizable=0;points=[];autosize=1;strokeColor=none;fillColor=none;" parent="1" vertex="1">
          <mxGeometry x="-200" width="100" height="60" as="geometry" />
        </mxCell>
        <mxCell id="pvizKO0pyKkFbegpxgIJ-2" value="a_sel = 10&lt;br&gt;b_sel = 1&lt;br&gt;shift_sel = 100" style="text;html=1;align=center;verticalAlign=middle;resizable=0;points=[];autosize=1;strokeColor=none;fillColor=none;" parent="1" vertex="1">
          <mxGeometry x="-70" y="-120" width="100" height="60" as="geometry" />
        </mxCell>
        <mxCell id="pvizKO0pyKkFbegpxgIJ-3" value="a_sel = 11&lt;br&gt;b_sel = 0&lt;br&gt;shift_sel = 011" style="text;html=1;align=center;verticalAlign=middle;resizable=0;points=[];autosize=1;strokeColor=none;fillColor=none;" parent="1" vertex="1">
          <mxGeometry x="275" y="-120" width="100" height="60" as="geometry" />
        </mxCell>
        <mxCell id="pvizKO0pyKkFbegpxgIJ-4" value="a_sel = 11&lt;br&gt;b_sel = 1&lt;br&gt;shift_sel = 101" style="text;html=1;align=center;verticalAlign=middle;resizable=0;points=[];autosize=1;strokeColor=none;fillColor=none;rotation=-36;" parent="1" vertex="1">
          <mxGeometry x="330" width="100" height="60" as="geometry" />
        </mxCell>
        <mxCell id="pvizKO0pyKkFbegpxgIJ-5" value="&lt;font&gt;start==0&lt;/font&gt;" style="text;html=1;align=center;verticalAlign=middle;resizable=0;points=[];autosize=1;strokeColor=none;fillColor=none;fontColor=#000000;rotation=0;" parent="1" vertex="1">
          <mxGeometry x="-25" y="250" width="70" height="30" as="geometry" />
        </mxCell>
        <mxCell id="pvizKO0pyKkFbegpxgIJ-6" value="&lt;div&gt;upd_prod=0&lt;br&gt;&lt;/div&gt;&lt;div&gt;busy=0&lt;/div&gt;&lt;div&gt;&lt;br&gt;&lt;/div&gt;" style="text;html=1;align=center;verticalAlign=middle;resizable=0;points=[];autosize=1;strokeColor=none;fillColor=none;rotation=0;" parent="1" vertex="1">
          <mxGeometry x="40" y="240" width="90" height="60" as="geometry" />
        </mxCell>
        <mxCell id="pvizKO0pyKkFbegpxgIJ-8" value="" style="shape=flexArrow;endArrow=classic;html=1;rounded=0;entryX=0;entryY=0;entryDx=0;entryDy=0;fillColor=#000000;" parent="1" target="8Rcfs02TrADU7LgiyIq5-1" edge="1">
          <mxGeometry width="50" height="50" relative="1" as="geometry">
            <mxPoint x="20" y="50" as="sourcePoint" />
            <mxPoint x="80" y="50" as="targetPoint" />
          </mxGeometry>
        </mxCell>
        <mxCell id="pvizKO0pyKkFbegpxgIJ-9" value="reset" style="text;html=1;align=center;verticalAlign=middle;resizable=0;points=[];autosize=1;strokeColor=none;fillColor=none;" parent="1" vertex="1">
          <mxGeometry x="10" y="20" width="50" height="30" as="geometry" />
        </mxCell>
        <mxCell id="7WRSr0DyEqcxmjLaL4QP-1" value="" style="endArrow=classic;html=1;rounded=0;exitX=0;exitY=1;exitDx=0;exitDy=0;entryX=1;entryY=0;entryDx=0;entryDy=0;" edge="1" parent="1" source="8Rcfs02TrADU7LgiyIq5-30" target="8Rcfs02TrADU7LgiyIq5-1">
          <mxGeometry width="50" height="50" relative="1" as="geometry">
            <mxPoint x="290" y="50" as="sourcePoint" />
            <mxPoint x="340" as="targetPoint" />
          </mxGeometry>
        </mxCell>
      </root>
    </mxGraphModel>
  </diagram>
  <diagram id="xRHMBbyLrOiUbwhX3-N8" name="fast_mul">
    <mxGraphModel dx="2335" dy="1816" grid="1" gridSize="10" guides="1" tooltips="1" connect="1" arrows="1" fold="1" page="1" pageScale="1" pageWidth="850" pageHeight="1100" math="0" shadow="0">
      <root>
        <mxCell id="0" />
        <mxCell id="1" parent="0" />
        <mxCell id="2rH2YBOA3sjGDDKpHz9Y-1" value="&lt;font style=&quot;font-size: 36px;&quot;&gt;Idle&lt;/font&gt;" style="ellipse;whiteSpace=wrap;html=1;aspect=fixed;" parent="1" vertex="1">
          <mxGeometry x="90" y="90" width="140" height="140" as="geometry" />
        </mxCell>
        <mxCell id="2rH2YBOA3sjGDDKpHz9Y-2" value="" style="endArrow=classic;html=1;rounded=0;exitX=1;exitY=0.5;exitDx=0;exitDy=0;fillColor=#d5e8d4;strokeColor=#000000;fontColor=#000000;" parent="1" source="2rH2YBOA3sjGDDKpHz9Y-1" edge="1">
          <mxGeometry width="50" height="50" relative="1" as="geometry">
            <mxPoint x="290" y="160" as="sourcePoint" />
            <mxPoint x="420" y="160" as="targetPoint" />
          </mxGeometry>
        </mxCell>
        <mxCell id="2rH2YBOA3sjGDDKpHz9Y-3" value="&lt;font style=&quot;font-size: 36px;&quot;&gt;S0&lt;/font&gt;" style="ellipse;whiteSpace=wrap;html=1;aspect=fixed;" parent="1" vertex="1">
          <mxGeometry x="445" y="90" width="140" height="140" as="geometry" />
        </mxCell>
        <mxCell id="2rH2YBOA3sjGDDKpHz9Y-4" value="&lt;font&gt;start==1&lt;/font&gt;" style="text;html=1;align=center;verticalAlign=middle;resizable=0;points=[];autosize=1;strokeColor=none;fillColor=none;fontColor=#000000;" parent="1" vertex="1">
          <mxGeometry x="295" y="130" width="70" height="30" as="geometry" />
        </mxCell>
        <mxCell id="2rH2YBOA3sjGDDKpHz9Y-5" value="&lt;font style=&quot;font-size: 36px;&quot;&gt;S1&lt;/font&gt;" style="ellipse;whiteSpace=wrap;html=1;aspect=fixed;" parent="1" vertex="1">
          <mxGeometry x="445" y="370" width="140" height="140" as="geometry" />
        </mxCell>
        <mxCell id="2rH2YBOA3sjGDDKpHz9Y-6" value="" style="endArrow=classic;html=1;rounded=0;exitX=0.5;exitY=1;exitDx=0;exitDy=0;" parent="1" source="2rH2YBOA3sjGDDKpHz9Y-3" edge="1">
          <mxGeometry width="50" height="50" relative="1" as="geometry">
            <mxPoint x="175" y="170" as="sourcePoint" />
            <mxPoint x="515" y="360" as="targetPoint" />
          </mxGeometry>
        </mxCell>
        <mxCell id="2rH2YBOA3sjGDDKpHz9Y-7" value="&lt;font style=&quot;font-size: 36px;&quot;&gt;S2&lt;/font&gt;" style="ellipse;whiteSpace=wrap;html=1;aspect=fixed;" parent="1" vertex="1">
          <mxGeometry x="90" y="370" width="140" height="140" as="geometry" />
        </mxCell>
        <mxCell id="2rH2YBOA3sjGDDKpHz9Y-8" value="" style="endArrow=classic;html=1;rounded=0;exitX=0;exitY=0.5;exitDx=0;exitDy=0;" parent="1" source="2rH2YBOA3sjGDDKpHz9Y-5" edge="1">
          <mxGeometry width="50" height="50" relative="1" as="geometry">
            <mxPoint x="270" y="440" as="sourcePoint" />
            <mxPoint x="250" y="440" as="targetPoint" />
          </mxGeometry>
        </mxCell>
        <mxCell id="2rH2YBOA3sjGDDKpHz9Y-9" value="&lt;font style=&quot;font-size: 36px;&quot;&gt;S4&lt;/font&gt;" style="ellipse;whiteSpace=wrap;html=1;aspect=fixed;" parent="1" vertex="1">
          <mxGeometry x="-270" y="90" width="140" height="140" as="geometry" />
        </mxCell>
        <mxCell id="2rH2YBOA3sjGDDKpHz9Y-10" value="&lt;font style=&quot;font-size: 36px;&quot;&gt;S3&lt;/font&gt;" style="ellipse;whiteSpace=wrap;html=1;aspect=fixed;" parent="1" vertex="1">
          <mxGeometry x="-270" y="370" width="140" height="140" as="geometry" />
        </mxCell>
        <mxCell id="2rH2YBOA3sjGDDKpHz9Y-11" value="" style="endArrow=classic;html=1;rounded=0;exitX=0;exitY=0.5;exitDx=0;exitDy=0;" parent="1" source="2rH2YBOA3sjGDDKpHz9Y-7" edge="1">
          <mxGeometry width="50" height="50" relative="1" as="geometry">
            <mxPoint x="-20" y="440" as="sourcePoint" />
            <mxPoint x="-110" y="440" as="targetPoint" />
          </mxGeometry>
        </mxCell>
        <mxCell id="2rH2YBOA3sjGDDKpHz9Y-12" value="" style="endArrow=classic;html=1;rounded=0;exitX=0.5;exitY=0;exitDx=0;exitDy=0;" parent="1" source="2rH2YBOA3sjGDDKpHz9Y-10" edge="1">
          <mxGeometry width="50" height="50" relative="1" as="geometry">
            <mxPoint x="-200" y="235" as="sourcePoint" />
            <mxPoint x="-200" y="250" as="targetPoint" />
          </mxGeometry>
        </mxCell>
        <mxCell id="2rH2YBOA3sjGDDKpHz9Y-13" value="&lt;font style=&quot;font-size: 36px;&quot;&gt;S6&lt;/font&gt;" style="ellipse;whiteSpace=wrap;html=1;aspect=fixed;" parent="1" vertex="1">
          <mxGeometry x="90" y="-190" width="140" height="140" as="geometry" />
        </mxCell>
        <mxCell id="2rH2YBOA3sjGDDKpHz9Y-14" value="&lt;font style=&quot;font-size: 36px;&quot;&gt;S7&lt;/font&gt;" style="ellipse;whiteSpace=wrap;html=1;aspect=fixed;" parent="1" vertex="1">
          <mxGeometry x="445" y="-190" width="140" height="140" as="geometry" />
        </mxCell>
        <mxCell id="2rH2YBOA3sjGDDKpHz9Y-15" value="&lt;font style=&quot;font-size: 36px;&quot;&gt;S5&lt;/font&gt;" style="ellipse;whiteSpace=wrap;html=1;aspect=fixed;" parent="1" vertex="1">
          <mxGeometry x="-270" y="-190" width="140" height="140" as="geometry" />
        </mxCell>
        <mxCell id="2rH2YBOA3sjGDDKpHz9Y-16" value="" style="endArrow=classic;html=1;rounded=0;exitX=0.5;exitY=0;exitDx=0;exitDy=0;entryX=-0.003;entryY=-0.002;entryDx=0;entryDy=0;entryPerimeter=0;" parent="1" source="2rH2YBOA3sjGDDKpHz9Y-9" edge="1">
          <mxGeometry width="50" height="50" relative="1" as="geometry">
            <mxPoint x="-200" y="80" as="sourcePoint" />
            <mxPoint x="-200.26999999999998" y="-30.180000000000064" as="targetPoint" />
          </mxGeometry>
        </mxCell>
        <mxCell id="2rH2YBOA3sjGDDKpHz9Y-17" value="" style="endArrow=classic;html=1;rounded=0;exitX=1;exitY=0.5;exitDx=0;exitDy=0;" parent="1" source="2rH2YBOA3sjGDDKpHz9Y-15" edge="1">
          <mxGeometry width="50" height="50" relative="1" as="geometry">
            <mxPoint x="80" y="-120" as="sourcePoint" />
            <mxPoint x="80" y="-120" as="targetPoint" />
          </mxGeometry>
        </mxCell>
        <mxCell id="2rH2YBOA3sjGDDKpHz9Y-18" value="" style="endArrow=classic;html=1;rounded=0;exitX=1;exitY=0.5;exitDx=0;exitDy=0;" parent="1" source="2rH2YBOA3sjGDDKpHz9Y-13" edge="1">
          <mxGeometry width="50" height="50" relative="1" as="geometry">
            <mxPoint x="270" y="-100" as="sourcePoint" />
            <mxPoint x="440" y="-120" as="targetPoint" />
          </mxGeometry>
        </mxCell>
        <mxCell id="2rH2YBOA3sjGDDKpHz9Y-19" value="&lt;span style=&quot;font-size: 18px;&quot;&gt;&lt;u&gt;Defaults:&lt;/u&gt;&lt;br&gt;a_sel = 00&lt;br&gt;b_sel = 0&lt;br&gt;shift_sel = 000&lt;br&gt;upd_prod = 1&lt;br&gt;clr_prod = 0&lt;br&gt;busy =1&lt;br&gt;&lt;/span&gt;" style="text;html=1;align=center;verticalAlign=middle;resizable=0;points=[];autosize=1;strokeColor=none;fillColor=none;" parent="1" vertex="1">
          <mxGeometry x="90" y="-380" width="140" height="160" as="geometry" />
        </mxCell>
        <mxCell id="2rH2YBOA3sjGDDKpHz9Y-20" value="b_sel = 1&lt;br&gt;shift_sel = 010" style="text;html=1;align=center;verticalAlign=middle;resizable=0;points=[];autosize=1;strokeColor=none;fillColor=none;" parent="1" vertex="1">
          <mxGeometry x="304" y="440" width="100" height="40" as="geometry" />
        </mxCell>
        <mxCell id="2rH2YBOA3sjGDDKpHz9Y-22" value="" style="edgeStyle=none;orthogonalLoop=1;jettySize=auto;html=1;entryX=0.5;entryY=1;entryDx=0;entryDy=0;exitX=1;exitY=0.5;exitDx=0;exitDy=0;curved=1;fillColor=#fad7ac;strokeColor=#000000;" parent="1" source="2rH2YBOA3sjGDDKpHz9Y-1" target="2rH2YBOA3sjGDDKpHz9Y-1" edge="1">
          <mxGeometry width="100" relative="1" as="geometry">
            <mxPoint x="40" y="310" as="sourcePoint" />
            <mxPoint x="140" y="310" as="targetPoint" />
            <Array as="points">
              <mxPoint x="380" y="270" />
              <mxPoint x="230" y="360" />
              <mxPoint x="140" y="310" />
            </Array>
          </mxGeometry>
        </mxCell>
        <mxCell id="2rH2YBOA3sjGDDKpHz9Y-23" value="clr_prod = 1&lt;br&gt;busy = 0" style="text;html=1;align=center;verticalAlign=middle;resizable=0;points=[];autosize=1;strokeColor=none;fillColor=none;" parent="1" vertex="1">
          <mxGeometry x="285" y="160" width="90" height="40" as="geometry" />
        </mxCell>
        <mxCell id="2rH2YBOA3sjGDDKpHz9Y-24" value="a_sel = 01&lt;br&gt;shift_sel = 001" style="text;html=1;align=center;verticalAlign=middle;resizable=0;points=[];autosize=1;strokeColor=none;fillColor=none;" parent="1" vertex="1">
          <mxGeometry x="-55" y="440" width="100" height="40" as="geometry" />
        </mxCell>
        <mxCell id="2rH2YBOA3sjGDDKpHz9Y-25" value="a_sel = 01&lt;br&gt;b_sel = 1&lt;br&gt;shift_sel = 011" style="text;html=1;align=center;verticalAlign=middle;resizable=0;points=[];autosize=1;strokeColor=none;fillColor=none;" parent="1" vertex="1">
          <mxGeometry x="-200" y="305" width="100" height="60" as="geometry" />
        </mxCell>
        <mxCell id="2rH2YBOA3sjGDDKpHz9Y-26" value="a_sel = 10&lt;br&gt;b_sel = 0&lt;br&gt;shift_sel = 010" style="text;html=1;align=center;verticalAlign=middle;resizable=0;points=[];autosize=1;strokeColor=none;fillColor=none;" parent="1" vertex="1">
          <mxGeometry x="-200" width="100" height="60" as="geometry" />
        </mxCell>
        <mxCell id="2rH2YBOA3sjGDDKpHz9Y-27" value="a_sel = 10&lt;br&gt;b_sel = 1&lt;br&gt;shift_sel = 100" style="text;html=1;align=center;verticalAlign=middle;resizable=0;points=[];autosize=1;strokeColor=none;fillColor=none;" parent="1" vertex="1">
          <mxGeometry x="-76" y="-181" width="100" height="60" as="geometry" />
        </mxCell>
        <mxCell id="2rH2YBOA3sjGDDKpHz9Y-28" value="a_sel = 11&lt;br&gt;b_sel = 0&lt;br&gt;shift_sel = 011" style="text;html=1;align=center;verticalAlign=middle;resizable=0;points=[];autosize=1;strokeColor=none;fillColor=none;" parent="1" vertex="1">
          <mxGeometry x="275" y="-120" width="100" height="60" as="geometry" />
        </mxCell>
        <mxCell id="2rH2YBOA3sjGDDKpHz9Y-30" value="&lt;font&gt;start==0&lt;/font&gt;" style="text;html=1;align=center;verticalAlign=middle;resizable=0;points=[];autosize=1;strokeColor=none;fillColor=none;fontColor=#000000;rotation=0;" parent="1" vertex="1">
          <mxGeometry x="230" y="300" width="70" height="30" as="geometry" />
        </mxCell>
        <mxCell id="2rH2YBOA3sjGDDKpHz9Y-31" value="&lt;div&gt;upd_prod=0&lt;br&gt;&lt;/div&gt;&lt;div&gt;busy=0&lt;/div&gt;&lt;div&gt;&lt;br&gt;&lt;/div&gt;" style="text;html=1;align=center;verticalAlign=middle;resizable=0;points=[];autosize=1;strokeColor=none;fillColor=none;rotation=0;" parent="1" vertex="1">
          <mxGeometry x="240" y="330" width="90" height="60" as="geometry" />
        </mxCell>
        <mxCell id="2rH2YBOA3sjGDDKpHz9Y-32" value="" style="shape=flexArrow;endArrow=classic;html=1;rounded=0;entryX=0;entryY=0.5;entryDx=0;entryDy=0;fillColor=#000000;" parent="1" target="2rH2YBOA3sjGDDKpHz9Y-1" edge="1">
          <mxGeometry width="50" height="50" relative="1" as="geometry">
            <mxPoint x="-70" y="160" as="sourcePoint" />
            <mxPoint x="80" y="50" as="targetPoint" />
          </mxGeometry>
        </mxCell>
        <mxCell id="2rH2YBOA3sjGDDKpHz9Y-33" value="&lt;b&gt;&lt;font style=&quot;font-size: 14px;&quot;&gt;reset&lt;/font&gt;&lt;/b&gt;" style="text;html=1;align=center;verticalAlign=middle;resizable=0;points=[];autosize=1;strokeColor=none;fillColor=none;" parent="1" vertex="1">
          <mxGeometry x="-80" y="128" width="60" height="30" as="geometry" />
        </mxCell>
        <mxCell id="as4i-9LQaRvhitIyfpV--2" value="" style="endArrow=classic;html=1;rounded=0;exitX=0.5;exitY=1;exitDx=0;exitDy=0;entryX=0.5;entryY=1;entryDx=0;entryDy=0;" parent="1" edge="1">
          <mxGeometry width="50" height="50" relative="1" as="geometry">
            <mxPoint x="515" y="510" as="sourcePoint" />
            <mxPoint x="-200" y="510" as="targetPoint" />
            <Array as="points">
              <mxPoint x="515" y="540" />
              <mxPoint x="-200" y="540" />
            </Array>
          </mxGeometry>
        </mxCell>
        <mxCell id="Y3GAccFSMQnBVlvbdplY-1" value="" style="endArrow=classic;html=1;rounded=0;exitX=0;exitY=0.5;exitDx=0;exitDy=0;entryX=0;entryY=0.5;entryDx=0;entryDy=0;" parent="1" edge="1">
          <mxGeometry width="50" height="50" relative="1" as="geometry">
            <mxPoint x="-270" y="440" as="sourcePoint" />
            <mxPoint x="-270" y="-120" as="targetPoint" />
            <Array as="points">
              <mxPoint x="-310" y="440" />
              <mxPoint x="-310" y="-120" />
            </Array>
          </mxGeometry>
        </mxCell>
        <mxCell id="WSnTwp2I9P65GU7vp19S-1" value="b_msw_is_zero==0" style="text;html=1;align=center;verticalAlign=middle;resizable=0;points=[];autosize=1;strokeColor=none;fillColor=none;" parent="1" vertex="1">
          <mxGeometry x="289" y="410" width="130" height="30" as="geometry" />
        </mxCell>
        <mxCell id="WSnTwp2I9P65GU7vp19S-2" value="a_sel = 01&lt;br&gt;shift_sel = 001" style="text;html=1;align=center;verticalAlign=middle;resizable=0;points=[];autosize=1;strokeColor=none;fillColor=none;" parent="1" vertex="1">
          <mxGeometry x="215" y="540" width="100" height="40" as="geometry" />
        </mxCell>
        <mxCell id="WSnTwp2I9P65GU7vp19S-3" value="b_msw_is_zero==1" style="text;html=1;align=center;verticalAlign=middle;resizable=0;points=[];autosize=1;strokeColor=none;fillColor=none;" parent="1" vertex="1">
          <mxGeometry x="200" y="510" width="130" height="30" as="geometry" />
        </mxCell>
        <mxCell id="Z-HPS9DcqNNTIX2Dgjy1-1" value="&lt;div&gt;b_msw_is_zero==0&lt;/div&gt;" style="text;html=1;align=center;verticalAlign=middle;resizable=0;points=[];autosize=1;strokeColor=none;fillColor=none;" parent="1" vertex="1">
          <mxGeometry x="-200" y="289" width="130" height="30" as="geometry" />
        </mxCell>
        <mxCell id="Z-HPS9DcqNNTIX2Dgjy1-2" value="a_sel = 10&lt;br&gt;b_sel = 0&lt;br&gt;shift_sel = 010" style="text;html=1;align=center;verticalAlign=middle;resizable=0;points=[];autosize=1;strokeColor=none;fillColor=none;" parent="1" vertex="1">
          <mxGeometry x="-410" y="300" width="100" height="60" as="geometry" />
        </mxCell>
        <mxCell id="Z-HPS9DcqNNTIX2Dgjy1-3" value="&lt;div&gt;b_msw_is_zero==1&lt;/div&gt;&lt;div&gt;a_msb_is_zero==0&lt;/div&gt;" style="text;html=1;align=center;verticalAlign=middle;resizable=0;points=[];autosize=1;strokeColor=none;fillColor=none;" parent="1" vertex="1">
          <mxGeometry x="-440" y="270" width="130" height="40" as="geometry" />
        </mxCell>
        <mxCell id="C1ihTF-dT5v39cvN-vvW-1" value="" style="endArrow=classic;html=1;rounded=0;exitX=0.929;exitY=0.214;exitDx=0;exitDy=0;exitPerimeter=0;" parent="1" edge="1">
          <mxGeometry width="50" height="50" relative="1" as="geometry">
            <mxPoint x="-140" y="400" as="sourcePoint" />
            <mxPoint x="120" y="220" as="targetPoint" />
          </mxGeometry>
        </mxCell>
        <mxCell id="C1ihTF-dT5v39cvN-vvW-3" value="&lt;div&gt;b_msw_is_zero==1&lt;/div&gt;&lt;div&gt;a_msb_is_zero==1&lt;/div&gt;" style="text;html=1;align=center;verticalAlign=middle;resizable=0;points=[];autosize=1;strokeColor=none;fillColor=none;" parent="1" vertex="1">
          <mxGeometry x="-60" y="231" width="130" height="40" as="geometry" />
        </mxCell>
        <mxCell id="C1ihTF-dT5v39cvN-vvW-4" value="a_sel = 10&lt;br&gt;b_sel = 0&lt;br&gt;shift_sel = 010" style="text;html=1;align=center;verticalAlign=middle;resizable=0;points=[];autosize=1;strokeColor=none;fillColor=none;" parent="1" vertex="1">
          <mxGeometry x="-10" y="285" width="100" height="60" as="geometry" />
        </mxCell>
        <mxCell id="GAOmzef8yjKpNdII8w8E-2" value="" style="endArrow=classic;html=1;rounded=0;exitX=1;exitY=1;exitDx=0;exitDy=0;entryX=0;entryY=0;entryDx=0;entryDy=0;" parent="1" source="2rH2YBOA3sjGDDKpHz9Y-15" target="2rH2YBOA3sjGDDKpHz9Y-1" edge="1">
          <mxGeometry width="50" height="50" relative="1" as="geometry">
            <mxPoint x="-134" y="-98" as="sourcePoint" />
            <mxPoint x="140" y="87" as="targetPoint" />
            <Array as="points">
              <mxPoint x="-30" y="-70" />
              <mxPoint x="-30" y="40" />
              <mxPoint x="110" y="40" />
            </Array>
          </mxGeometry>
        </mxCell>
        <mxCell id="GAOmzef8yjKpNdII8w8E-4" value="a_sel = 10&lt;br&gt;b_sel = 1&lt;br&gt;shift_sel = 100" style="text;html=1;align=center;verticalAlign=middle;resizable=0;points=[];autosize=1;strokeColor=none;fillColor=none;" parent="1" vertex="1">
          <mxGeometry x="-10" y="30" width="100" height="60" as="geometry" />
        </mxCell>
        <mxCell id="GAOmzef8yjKpNdII8w8E-5" value="a_sel = 11&lt;br&gt;b_sel = 0&lt;br&gt;shift_sel = 011" style="text;html=1;align=center;verticalAlign=middle;resizable=0;points=[];autosize=1;strokeColor=none;fillColor=none;" parent="1" vertex="1">
          <mxGeometry x="-130" y="-80" width="100" height="60" as="geometry" />
        </mxCell>
        <mxCell id="GAOmzef8yjKpNdII8w8E-6" value="&lt;div&gt;b_msw_is_zero==1&lt;/div&gt;" style="text;html=1;align=center;verticalAlign=middle;resizable=0;points=[];autosize=1;strokeColor=none;fillColor=none;" parent="1" vertex="1">
          <mxGeometry x="-140" y="-105" width="130" height="30" as="geometry" />
        </mxCell>
        <mxCell id="R13PqGzj_EXUQI4PG2Hd-1" value="&lt;div&gt;b_msw_is_zero==0&lt;/div&gt;&lt;div&gt;a_msb_is_zero==1&lt;/div&gt;" style="text;html=1;align=center;verticalAlign=middle;resizable=0;points=[];autosize=1;strokeColor=none;fillColor=none;" parent="1" vertex="1">
          <mxGeometry x="-30" width="130" height="40" as="geometry" />
        </mxCell>
        <mxCell id="dRQko60HplSQ8L1_vybF-1" value="&lt;div&gt;b_msw_is_zero==0&lt;/div&gt;&lt;div&gt;a_msb_is_zero==0&lt;/div&gt;" style="text;html=1;align=center;verticalAlign=middle;resizable=0;points=[];autosize=1;strokeColor=none;fillColor=none;" parent="1" vertex="1">
          <mxGeometry x="-85" y="-210" width="130" height="40" as="geometry" />
        </mxCell>
        <mxCell id="dU9lqy6XF_ZgrktRmU6N-1" value="a_sel = 11&lt;br&gt;b_sel = 1&lt;br&gt;shift_sel = 101" style="text;html=1;align=center;verticalAlign=middle;resizable=0;points=[];autosize=1;strokeColor=none;fillColor=none;rotation=-36;" vertex="1" parent="1">
          <mxGeometry x="330" width="100" height="60" as="geometry" />
        </mxCell>
        <mxCell id="dU9lqy6XF_ZgrktRmU6N-2" value="" style="endArrow=classic;html=1;rounded=0;exitX=0;exitY=1;exitDx=0;exitDy=0;entryX=1;entryY=0;entryDx=0;entryDy=0;" edge="1" parent="1">
          <mxGeometry width="50" height="50" relative="1" as="geometry">
            <mxPoint x="466" y="-71" as="sourcePoint" />
            <mxPoint x="209" y="111" as="targetPoint" />
          </mxGeometry>
        </mxCell>
      </root>
    </mxGraphModel>
  </diagram>
</mxfile>
